<?xml version="1.0" encoding="UTF-8"?>
<svg xmlns="http://www.w3.org/2000/svg" xmlns:xlink="http://www.w3.org/1999/xlink" width="212px" height="60px" viewBox="0 0 212 60" version="1.1">
<defs>
<clipPath id="clip1">
  <path d="M 68 0.015625 L 74 0.015625 L 74 60 L 68 60 Z M 68 0.015625 "/>
</clipPath>
<clipPath id="clip2">
  <path d="M 86.101562 0.148438 L 211.734375 0.148438 L 211.734375 59.878906 L 86.101562 59.878906 Z M 86.101562 0.148438 "/>
</clipPath>
<clipPath id="clip3">
  <path d="M 44 46 L 56.136719 46 L 56.136719 59.878906 L 44 59.878906 Z M 44 46 "/>
</clipPath>
<clipPath id="clip4">
  <path d="M 0.0117188 15 L 40 15 L 40 59.878906 L 0.0117188 59.878906 Z M 0.0117188 15 "/>
</clipPath>
<clipPath id="clip5">
  <path d="M 16 0.148438 L 29 0.148438 L 29 14 L 16 14 Z M 16 0.148438 "/>
</clipPath>
</defs>
<g id="surface1">
<g clip-path="url(#clip1)" clip-rule="nonzero">
<path style=" stroke:none;fill-rule:nonzero;fill:rgb(4.705882%,72.941176%,64.313725%);fill-opacity:1;" d="M 70.832031 0 L 71.402344 0 C 72.574219 0 73.519531 1.0625 73.519531 2.375 L 73.519531 57.65625 C 73.519531 58.964844 72.574219 60.027344 71.402344 60.027344 L 70.832031 60.027344 C 69.664062 60.027344 68.714844 58.964844 68.714844 57.65625 L 68.714844 2.375 C 68.714844 1.0625 69.664062 0 70.832031 0 Z M 70.832031 0 "/>
</g>
<g clip-path="url(#clip2)" clip-rule="nonzero">
<path style=" stroke:none;fill-rule:nonzero;fill:rgb(4.705882%,72.941176%,64.313725%);fill-opacity:1;" d="M 130.511719 54.238281 C 131.75 54.519531 132.707031 54.660156 133.390625 54.660156 C 134.074219 54.660156 135.265625 54.011719 136.96875 52.714844 L 138.390625 54.296875 C 134.957031 58.019531 132.492188 59.878906 130.996094 59.878906 C 129.769531 59.878906 127.460938 58.90625 124.078125 56.957031 L 117.738281 53.1875 C 113.96875 50.980469 110.5625 49.277344 107.523438 48.074219 L 113.417969 47.460938 C 116.3125 47.953125 119.347656 49.015625 122.527344 50.648438 L 124.605469 51.738281 C 127.308594 53.128906 129.277344 53.964844 130.511719 54.238281 Z M 91.332031 43.472656 C 89.621094 41.492188 88.320312 39.148438 87.429688 36.441406 C 86.546875 33.734375 86.105469 31 86.105469 28.238281 C 86.105469 25.476562 86.347656 23.035156 86.835938 20.917969 C 87.332031 18.789062 88.015625 16.855469 88.886719 15.105469 C 89.746094 13.351562 90.789062 11.789062 92.011719 10.417969 C 93.234375 9.042969 94.570312 7.878906 96.019531 6.925781 C 98.988281 5.003906 102.164062 4.039062 105.550781 4.039062 C 108.933594 4.039062 111.871094 4.59375 114.367188 5.707031 C 116.859375 6.816406 118.957031 8.347656 120.660156 10.296875 C 124.117188 14.253906 125.84375 19.441406 125.84375 25.871094 C 125.84375 33.03125 123.90625 38.871094 120.023438 43.386719 C 118.234375 45.472656 116.152344 47.078125 113.773438 48.195312 C 111.394531 49.316406 108.734375 49.875 105.796875 49.875 C 102.859375 49.875 100.140625 49.308594 97.648438 48.171875 C 95.148438 47.027344 93.042969 45.460938 91.332031 43.472656 Z M 95.179688 13.039062 C 93.902344 14.707031 92.917969 16.652344 92.226562 18.875 C 91.53125 21.097656 91.179688 23.273438 91.179688 25.398438 C 91.179688 27.519531 91.320312 29.421875 91.601562 31.113281 C 91.882812 32.804688 92.296875 34.402344 92.851562 35.910156 C 93.40625 37.417969 94.097656 38.808594 94.933594 40.089844 C 95.765625 41.363281 96.734375 42.460938 97.84375 43.386719 C 100.191406 45.355469 102.960938 46.335938 106.152344 46.335938 C 110.523438 46.335938 114.074219 44.675781 116.8125 41.359375 C 119.5 38.089844 120.84375 33.828125 120.84375 28.578125 C 120.84375 22.800781 119.675781 17.996094 117.339844 14.164062 C 114.675781 9.773438 110.78125 7.578125 105.65625 7.578125 C 101.433594 7.578125 97.9375 9.398438 95.179688 13.039062 Z M 131.65625 34.859375 C 131.65625 32.605469 132 30.5 132.691406 28.550781 C 133.386719 26.601562 134.332031 24.953125 135.523438 23.597656 C 137.976562 20.75 141 19.324219 144.601562 19.324219 C 148.773438 19.324219 152.039062 20.707031 154.386719 23.476562 C 156.613281 26.136719 157.726562 29.609375 157.726562 33.894531 C 157.726562 38.667969 156.46875 42.550781 153.945312 45.539062 C 151.488281 48.429688 148.453125 49.875 144.835938 49.875 C 140.710938 49.875 137.449219 48.449219 135.050781 45.597656 C 132.785156 42.925781 131.65625 39.34375 131.65625 34.859375 Z M 138.390625 26.0625 C 137.6875 27.070312 137.15625 28.253906 136.796875 29.617188 C 136.4375 30.96875 136.257812 32.4375 136.257812 34.027344 C 136.257812 35.605469 136.417969 37.148438 136.742188 38.652344 C 137.066406 40.160156 137.574219 41.492188 138.261719 42.652344 C 139.769531 45.171875 141.945312 46.433594 144.78125 46.433594 C 147.449219 46.433594 149.519531 45.445312 150.992188 43.472656 C 152.449219 41.546875 153.179688 38.941406 153.179688 35.65625 C 153.179688 29.839844 151.695312 25.929688 148.726562 23.925781 C 147.621094 23.175781 146.316406 22.800781 144.816406 22.800781 C 143.304688 22.800781 142.035156 23.09375 141 23.671875 C 139.957031 24.25 139.089844 25.050781 138.390625 26.0625 Z M 164.886719 46.070312 L 164.886719 24.601562 L 161.523438 23.925781 L 161.523438 21.472656 L 169.152344 19.324219 L 169.152344 26.835938 C 173.183594 21.828125 176.21875 19.324219 178.25 19.324219 C 179.917969 19.324219 181.457031 20.066406 182.863281 21.558594 L 181.496094 26.339844 L 180.253906 26.339844 C 180.253906 25.375 179.597656 24.660156 178.28125 24.191406 C 177.910156 24.070312 177.539062 24.011719 177.171875 24.011719 C 175.3125 24.011719 172.640625 26.105469 169.152344 30.292969 L 169.152344 46.070312 L 174.359375 46.746094 L 174.359375 49.199219 L 161.523438 49.199219 L 161.523438 46.746094 Z M 187.304688 45.371094 L 187.304688 5.453125 L 183.886719 4.714844 L 183.886719 2.335938 L 191.59375 0.148438 L 191.59375 23.152344 C 193.3125 21.800781 194.964844 20.820312 196.554688 20.214844 C 198.140625 19.621094 199.648438 19.324219 201.078125 19.324219 C 202.507812 19.324219 203.90625 19.6875 205.273438 20.421875 C 206.644531 21.164062 207.804688 22.183594 208.753906 23.476562 C 210.738281 26.191406 211.730469 29.664062 211.730469 33.894531 C 211.730469 38.273438 210.5625 41.957031 208.226562 44.945312 C 205.695312 48.234375 202.277344 49.875 197.964844 49.875 C 195.191406 49.875 192.585938 49.132812 190.148438 47.640625 C 189.058594 46.988281 188.109375 46.230469 187.304688 45.371094 Z M 199.195312 23.152344 C 196.828125 23.152344 194.296875 24.167969 191.59375 26.195312 L 191.59375 43.039062 C 193.105469 45.300781 195.496094 46.433594 198.773438 46.433594 C 201.300781 46.433594 203.359375 45.351562 204.9375 43.183594 C 206.410156 41.175781 207.148438 38.667969 207.148438 35.65625 C 207.148438 30.113281 205.699219 26.3125 202.804688 24.25 C 201.804688 23.519531 200.601562 23.152344 199.195312 23.152344 Z M 199.195312 23.152344 "/>
</g>
<g clip-path="url(#clip3)" clip-rule="nonzero">
<path style=" stroke:none;fill-rule:nonzero;fill:rgb(4.705882%,72.941176%,64.313725%);fill-opacity:1;" d="M 44.023438 53.09375 C 44.023438 56.839844 46.734375 59.878906 50.078125 59.878906 C 53.421875 59.878906 56.136719 56.839844 56.136719 53.09375 C 56.136719 49.34375 53.421875 46.304688 50.078125 46.304688 C 46.734375 46.304688 44.023438 49.34375 44.023438 53.09375 "/>
</g>
<g clip-path="url(#clip4)" clip-rule="nonzero">
<path style=" stroke:none;fill-rule:nonzero;fill:rgb(4.705882%,72.941176%,64.313725%);fill-opacity:1;" d="M 26.65625 24.585938 C 29.53125 27.257812 35.894531 35.945312 39.976562 31.371094 C 37.152344 28.207031 34.328125 25.039062 31.503906 21.875 C 30.023438 20.214844 28.542969 18.554688 27.0625 16.894531 C 26.066406 15.78125 22.136719 17.269531 20.40625 16.6875 C 17.453125 15.691406 11.933594 15.285156 9.050781 17.65625 C 6.820312 18.210938 4.597656 26.519531 3.644531 28.65625 C 7.433594 30.777344 9.339844 26.507812 10.746094 23.511719 C 11.890625 21.070312 13.34375 21.867188 15.753906 21.867188 C 14.609375 26.996094 13.46875 32.128906 12.324219 37.257812 C 11.332031 41.691406 0.0117188 34.863281 0.0117188 43.589844 C 3.59375 43.589844 7.175781 43.589844 10.761719 43.589844 C 11.457031 43.589844 13.222656 43.9375 13.894531 43.589844 C 15.691406 43.589844 15.683594 39.917969 16.964844 39.515625 C 26.214844 36.628906 16.332031 59.433594 25.253906 59.878906 C 25.722656 48.113281 26.1875 36.347656 26.65625 24.585938 "/>
</g>
<g clip-path="url(#clip5)" clip-rule="nonzero">
<path style=" stroke:none;fill-rule:nonzero;fill:rgb(4.705882%,72.941176%,64.313725%);fill-opacity:1;" d="M 16.023438 6.9375 C 16.023438 10.6875 18.734375 13.722656 22.078125 13.722656 C 25.425781 13.722656 28.136719 10.6875 28.136719 6.9375 C 28.136719 3.1875 25.425781 0.148438 22.078125 0.148438 C 18.734375 0.148438 16.023438 3.1875 16.023438 6.9375 "/>
</g>
</g>
</svg>
