<?xml version="1.0" encoding="utf-8"?>
<!-- Generator: Adobe Illustrator 24.3.0, SVG Export Plug-In . SVG Version: 6.00 Build 0)  -->
<svg version="1.1" id="Layer_1" xmlns="http://www.w3.org/2000/svg" xmlns:xlink="http://www.w3.org/1999/xlink" x="0px" y="0px"
	 viewBox="0 0 120 112" style="enable-background:new 0 0 120 112;" xml:space="preserve">
<style type="text/css">
	.st0{fill:#0B5C5A;}
	.st1{fill:#E5BA7C;}
</style>
<rect class="st0" width="120" height="112"/>
<path class="st1" d="M74.23,52.89c1.64-2.48,2.84-4.29,2.96-4.47c0.02-0.03,0.07-0.12,0.07-0.23c0-0.12-0.06-0.21-0.11-0.27
	c-0.5-0.35-1-0.7-1.5-1.05c-0.06-0.03-0.17-0.06-0.28-0.02c-0.1,0.03-0.16,0.1-0.19,0.14c-0.13,0.16-0.38,0.5-0.7,0.95
	c-0.04,0.03-0.12,0.07-0.22,0.08c-0.14,0.01-0.25-0.07-0.3-0.11c-1.16-0.85-1.77-1.64-1.77-1.64c-0.56-0.72-0.84-1.08-1.08-1.52
	c-0.2-0.37-0.55-1.01-0.76-1.93c-0.24-1.05-0.17-1.89-0.14-2.16c0.07-0.65,0.23-1.18,0.36-1.55c0.06,0.08,0.14,0.18,0.24,0.31
	c0.13,0.15,0.62,0.75,1.43,1.45c0.52,0.45,0.96,0.77,1.2,0.93c0.89,0.61,1.65,0.98,2.05,1.16c0.53,0.24,0.99,0.41,1.36,0.53
	c0.07,0.01,0.15,0.03,0.25,0.02c0,0,0.13-0.01,0.26-0.05c0.18-0.06,1.44-1.31,3.07-3.1c0.02-0.05,0.05-0.12,0.05-0.21
	c-0.01-0.26-0.27-0.41-0.29-0.41c-0.83-0.15-1.81-0.4-2.87-0.84c-0.66-0.27-1.67-0.74-2.8-1.52c-0.8-0.56-1.43-1.11-1.9-1.57
	c0.42-0.38,0.96-0.84,1.64-1.32c0.59-0.41,1.46-0.97,2.59-1.48c0.84-0.39,1.98-0.82,3.38-1.12c0.09-0.05,0.22-0.16,0.24-0.31
	c0.03-0.2-0.14-0.37-0.22-0.45c-0.28-0.28-1.4-1.41-2.95-2.95c-0.05-0.02-0.12-0.05-0.2-0.05c-0.12-0.01-0.21,0.04-0.24,0.05
	c-0.64,0.29-1.33,0.35-2.54,1.11c-1.76,1.11-3.57,3.04-3.76,3.24c-0.14-0.37-0.27-0.84-0.34-1.39c-0.03-0.21-0.12-1.1,0.12-2.23
	c0.49-2.24,1.93-3.68,2.53-4.27c0.44-0.43,0.85-0.74,1.13-0.95c0.03-0.02,0.1-0.05,0.18-0.06c0.15-0.01,0.26,0.08,0.29,0.1
	c0.23,0.32,0.46,0.64,0.69,0.96c0.06,0.04,0.15,0.09,0.28,0.1c0.07,0,0.17,0,0.3-0.07c0.22-0.11,0.77-0.49,1.49-1.04
	c0.02-0.05,0.04-0.12,0.04-0.22c0-0.09-0.03-0.2-0.1-0.33c-0.12-0.2-1.3-1.95-2.92-4.33c-0.06-0.05-0.17-0.11-0.31-0.11
	c-0.14,0-0.25,0.07-0.29,0.1c-1.2,0.8-1.52,1.14-1.53,1.14c-1.55,1.66-1.54,1.65-1.59,1.71c-0.33,0.41-0.84,1.05-1.35,1.98
	c-0.19,0.33-0.77,1.4-1.21,2.93c-0.43,1.49-0.51,2.67-0.53,2.95c-0.03,0.41-0.1,1.92,0.34,3.85c0.23,1.02,0.54,1.86,0.8,2.47
	c-0.22,0.49-0.48,1.14-0.69,1.92c-0.09,0.33-0.36,1.4-0.43,2.85c-0.09,1.9,0.22,3.4,0.41,4.15c0.44,1.74,1.11,3,1.46,3.59
	c1.34,2.31,3.1,3.74,4.27,4.52c0.02,0.02,0.14,0.16,0.34,0.16C74.1,52.99,74.2,52.91,74.23,52.89z"/>
<path class="st1" d="M46.39,52.89c-1.64-2.48-2.84-4.29-2.96-4.47c-0.02-0.03-0.07-0.12-0.07-0.23c0-0.12,0.06-0.21,0.11-0.27
	c0.5-0.35,1-0.7,1.5-1.05c0.06-0.03,0.17-0.06,0.28-0.02c0.1,0.03,0.16,0.1,0.19,0.14c0.13,0.16,0.38,0.5,0.7,0.95
	c0.04,0.03,0.12,0.07,0.22,0.08c0.14,0.01,0.25-0.07,0.3-0.11c1.16-0.85,1.77-1.64,1.77-1.64c0.56-0.72,0.84-1.08,1.08-1.52
	c0.2-0.37,0.55-1.01,0.76-1.93c0.24-1.05,0.17-1.89,0.14-2.16c-0.07-0.65-0.23-1.18-0.36-1.55c-0.06,0.08-0.14,0.18-0.24,0.31
	c-0.13,0.15-0.62,0.75-1.43,1.45c-0.52,0.45-0.96,0.77-1.2,0.93c-0.89,0.61-1.65,0.98-2.05,1.16c-0.53,0.24-0.99,0.41-1.36,0.53
	c-0.07,0.01-0.15,0.03-0.25,0.02c0,0-0.13-0.01-0.26-0.05c-0.18-0.06-1.44-1.31-3.07-3.1c-0.02-0.05-0.05-0.12-0.05-0.21
	c0.01-0.26,0.27-0.41,0.29-0.41c0.83-0.15,1.81-0.4,2.87-0.84c0.66-0.27,1.67-0.74,2.8-1.52c0.8-0.56,1.43-1.11,1.9-1.57
	c-0.42-0.38-0.96-0.84-1.64-1.32c-0.59-0.41-1.46-0.97-2.59-1.48c-0.84-0.39-1.98-0.82-3.38-1.12c-0.09-0.05-0.22-0.16-0.24-0.31
	c-0.03-0.2,0.14-0.37,0.22-0.45c0.28-0.28,1.4-1.41,2.95-2.95c0.05-0.02,0.12-0.05,0.2-0.05c0.12-0.01,0.21,0.04,0.24,0.05
	c0.64,0.29,1.33,0.35,2.54,1.11c1.76,1.11,3.57,3.04,3.76,3.24c0.14-0.37,0.27-0.84,0.34-1.39c0.03-0.21,0.12-1.1-0.12-2.23
	c-0.49-2.24-1.93-3.68-2.53-4.27c-0.44-0.43-0.85-0.74-1.13-0.95c-0.03-0.02-0.1-0.05-0.18-0.06c-0.15-0.01-0.26,0.08-0.29,0.1
	c-0.23,0.32-0.46,0.64-0.69,0.96c-0.06,0.04-0.15,0.09-0.28,0.1c-0.07,0-0.17,0-0.3-0.07c-0.22-0.11-0.77-0.49-1.49-1.04
	c-0.02-0.05-0.04-0.12-0.04-0.22c0-0.09,0.03-0.2,0.1-0.33c0.12-0.2,1.3-1.95,2.92-4.33c0.06-0.05,0.17-0.11,0.31-0.11
	c0.14,0,0.25,0.07,0.29,0.1c1.2,0.8,1.52,1.14,1.53,1.14c1.55,1.66,1.54,1.65,1.59,1.71c0.33,0.41,0.84,1.05,1.35,1.98
	c0.19,0.33,0.77,1.4,1.21,2.93c0.43,1.49,0.51,2.67,0.53,2.95c0.03,0.41,0.1,1.92-0.34,3.85c-0.23,1.02-0.54,1.86-0.8,2.47
	c0.22,0.49,0.48,1.14,0.69,1.92c0.09,0.33,0.36,1.4,0.43,2.85c0.09,1.9-0.22,3.4-0.41,4.15c-0.44,1.74-1.11,3-1.46,3.59
	c-1.34,2.31-3.1,3.74-4.27,4.52c-0.02,0.02-0.14,0.16-0.34,0.16C46.52,52.99,46.42,52.91,46.39,52.89z"/>
<path class="st1" d="M62.7,48.31c-0.12-0.36-0.27-0.86-0.41-1.48c-0.23-1.02-0.65-3.02-0.25-5.49c0.16-0.96,0.38-2.21,1.22-3.58
	c0.38-0.61,0.77-1.07,1.07-1.39c0.05-0.08,0.17-0.27,0.17-0.54c0.01-0.4-0.25-0.66-0.3-0.71c-0.38-0.44-0.89-1.1-1.32-1.99
	c-0.58-1.21-0.73-2.23-0.83-2.88c-0.41-2.92,0.34-5.87,0.66-6.95c0.17-0.04,0.53-0.16,0.85-0.49c0.1-0.11,0.49-0.52,0.5-1.16
	c0-0.48-0.21-0.99-0.58-1.27c-0.2-0.15-0.34-0.15-0.74-0.44c-0.16-0.11-0.28-0.2-0.41-0.34c-0.31-0.33-0.29-0.55-0.46-0.84
	c-0.25-0.4-0.92-0.78-1.59-0.76c-0.82,0.02-1.4,0.56-1.51,0.78c-0.01,0.02-0.09,0.19-0.22,0.41c-0.04,0.07-0.08,0.14-0.1,0.17
	c-0.22,0.33-0.49,0.52-0.61,0.61c-0.43,0.3-0.54,0.18-0.81,0.4c-0.41,0.33-0.56,0.95-0.48,1.46c0.07,0.44,0.3,0.73,0.39,0.84
	c0.33,0.4,0.74,0.55,0.91,0.6c0.1,0.27,0.22,0.64,0.34,1.09c0.08,0.3,0.29,1.13,0.4,2.43c0.07,0.82,0.14,1.63,0.05,2.67
	c-0.08,0.91-0.27,2.82-1.52,4.71c-0.32,0.48-0.63,0.85-0.85,1.09c-0.05,0.08-0.18,0.3-0.17,0.61c0.02,0.39,0.26,0.63,0.32,0.68
	c0.29,0.33,0.68,0.83,1.04,1.48c1.02,1.84,1.1,3.57,1.14,4.97c0.07,2.08-0.3,3.89-0.75,5.32c-0.15,0.05-0.38,0.15-0.6,0.33
	c-0.12,0.09-0.74,0.61-0.71,1.44c0.02,0.48,0.26,1.05,0.68,1.28c0.18,0.1,0.34,0.11,0.62,0.31c0.09,0.06,0.23,0.18,0.43,0.41
	c0.35,0.41,0.37,0.61,0.56,0.85c0.47,0.59,1.32,0.64,1.42,0.64c0.11,0,0.96,0.03,1.41-0.5c0.11-0.12,0.25-0.34,0.38-0.55
	c0.21-0.33,0.21-0.38,0.31-0.5c0.25-0.33,0.52-0.34,0.84-0.54c0.08-0.05,0.79-0.5,0.9-1.24c0.12-0.82-0.58-1.46-0.66-1.53
	C63.17,48.48,62.89,48.37,62.7,48.31z"/>
<ellipse class="st0" cx="60.3" cy="35.82" rx="1.13" ry="1.82"/>
<g>
	<path class="st1" d="M19.49,93.2l1.4-0.19h0.31l1.24,0.19v0.59h-2.95V93.2z M19.54,85.48h1.74l0.01,0.78h-0.18l-1.57-0.19V85.48z
		 M20.66,85.48h0.63l0.1,4.04v4.27h-0.73V85.48z M20.71,85.48h1.64l2.67,6.79H24.6l2.53-6.79h0.75l-3.1,8.31h-0.8L20.71,85.48z
		 M26.25,93.2l1.56-0.19h0.42l1.74,0.19v0.59h-3.72V93.2z M27.27,90.04l0.02-4.56h1.63c-0.04,1.27-0.04,2.58-0.04,3.88v0.54
		c0,1.3,0,2.6,0.04,3.88h-1.7C27.27,92.51,27.27,91.21,27.27,90.04z M28.07,85.48h1.88v0.59l-1.71,0.19h-0.16V85.48z"/>
	<path class="st1" d="M32.46,93.22l1.28-0.19h0.24l1.29,0.19v0.59h-2.8V93.22z M36.12,85.46h1.03l2.86,8.34h-1.67l-2.34-7.1
		l0.38-0.32l-2.49,7.43h-0.67L36.12,85.46z M37.01,93.23l1.5-0.19h0.55l1.59,0.19v0.57h-3.65V93.23z"/>
	<path class="st1" d="M43.02,86.07v-0.59h1.88v0.78h-0.16L43.02,86.07z M45.07,93.01l1.72,0.19v0.59h-3.77V93.2l1.72-0.19H45.07z
		 M44.1,89.36c0-1.29,0-2.59-0.04-3.88h1.68c-0.04,1.29-0.04,2.54-0.04,3.96v0.38c0,1.37,0,2.68,0.04,3.96h-1.68
		c0.04-1.26,0.04-2.57,0.04-3.88V89.36z M44.92,89.32h1.52c1.3,0,1.81-0.73,1.81-1.63c0-1.03-0.55-1.56-1.71-1.56h-1.62v-0.65h1.89
		c1.94,0,3.05,0.8,3.05,2.14c0,1.01-0.77,1.98-2.71,2.11l0.02-0.11c1.45,0.07,1.97,0.61,2.25,1.84l0.47,2l-0.71-0.44l1.59,0.18v0.59
		c-0.41,0.11-0.66,0.15-1.14,0.15c-0.92,0-1.41-0.26-1.54-1.03l-0.37-1.74c-0.19-0.93-0.57-1.21-1.46-1.21h-1.32V89.32z"/>
	<path class="st1" d="M53.29,93.2l1.27-0.19h0.24l1.28,0.19v0.59h-2.79V93.2z M56.94,85.44h1.03l2.85,8.34h-1.66l-2.32-7.1
		l0.38-0.32l-2.47,7.43h-0.67L56.94,85.44z M57.81,93.21l1.49-0.19h0.55l1.58,0.19v0.57h-3.62V93.21z"/>
	<path class="st1" d="M68.18,91.96c0-0.74-0.41-1.07-1.33-1.45l-0.5-0.22c-1.38-0.59-2.24-1.32-2.24-2.66
		c0-1.47,1.22-2.37,2.97-2.37c0.87,0,1.63,0.25,2.21,0.65l-0.09,1.69h-0.95l-0.33-1.89l0.91,0.39v0.63
		c-0.64-0.54-1.11-0.78-1.77-0.78c-0.84,0-1.5,0.47-1.5,1.28c0,0.72,0.45,1.13,1.28,1.47l0.54,0.23c1.63,0.68,2.28,1.39,2.28,2.61
		c0,1.48-1.19,2.45-3.12,2.45c-0.94,0-1.93-0.25-2.58-0.66l0.08-1.81h0.96l0.33,1.98l-0.89-0.33v-0.6c0.79,0.49,1.26,0.73,2.09,0.73
		C67.55,93.31,68.18,92.78,68.18,91.96z"/>
	<path class="st1" d="M72.2,86.07v-0.59h1.88v0.78h-0.16L72.2,86.07z M74.07,93.01v0.78H72.2V93.2l1.72-0.19H74.07z M73.27,89.36
		c0-1.29,0-2.59-0.04-3.88h1.69c-0.04,1.26-0.04,2.57-0.04,3.88v0.44c0,1.39,0,2.69,0.04,3.98h-1.69c0.04-1.26,0.04-2.57,0.04-3.88
		V89.36z M77.31,85.48l0.73,0.67h-3.97v-0.67h4.4l0.09,2.19h-0.87L77.31,85.48z M76.85,89.85h-2.78V89.2h2.78V89.85z M78.81,91.6
		l-0.09,2.19h-4.65v-0.66h4.22l-0.73,0.66l0.38-2.19H78.81z M76.46,89.37l0.19-1.26h0.64v2.83h-0.64l-0.19-1.33V89.37z"/>
	<path class="st1" d="M81.32,86.13v-0.59h1.9v0.78h-0.16L81.32,86.13z M83.22,93.07v0.78h-1.9v-0.59l1.73-0.19H83.22z M82.4,89.43
		c0-1.29,0-2.59-0.04-3.88h1.71c-0.04,1.26-0.04,2.57-0.04,3.88v0.44c0,1.39,0,2.69,0.04,3.98h-1.71c0.04-1.26,0.04-2.57,0.04-3.88
		V89.43z M86.49,85.54l0.74,0.67h-4.02v-0.67h4.45l0.09,2.19h-0.88L86.49,85.54z M86.03,89.92h-2.81v-0.66h2.81V89.92z M88.01,91.66
		l-0.09,2.19h-4.7v-0.66h4.27l-0.74,0.66l0.38-2.19H88.01z M85.63,89.43l0.19-1.26h0.65v2.83h-0.65l-0.19-1.33V89.43z"/>
	<path class="st1" d="M90.39,93.2l1.4-0.19h0.31l1.24,0.19v0.59h-2.94V93.2z M90.45,85.48h1.73l0.01,0.78h-0.18l-1.56-0.19V85.48z
		 M91.57,85.48h0.63l0.1,4.04v4.27h-0.73V85.48z M91.61,85.48h1.64l2.67,6.79H95.5l2.52-6.79h0.75l-3.09,8.31h-0.8L91.61,85.48z
		 M97.15,93.2l1.56-0.19h0.42l1.73,0.19v0.59h-3.72V93.2z M98.17,90.04l0.02-4.56h1.63c-0.04,1.27-0.04,2.58-0.04,3.88v0.54
		c0,1.3,0,2.6,0.04,3.88h-1.69C98.17,92.51,98.16,91.21,98.17,90.04z M98.97,85.48h1.87v0.59l-1.71,0.19h-0.16V85.48z"/>
</g>
<g>
	<path class="st1" d="M28.92,74.99h-6.69c-0.32,0-0.52,0.02-0.62,0.08c-0.2,0.12-0.32,0.46-0.32,0.98v4.35h-1.85v-4.5
		c0-0.52,0.04-0.94,0.14-1.21c0.16-0.46,0.48-0.79,0.89-1.06c0.42-0.29,0.91-0.44,1.41-0.44h0.3c-0.42-0.73-0.63-1.46-0.63-2.21
		c0-1.15,0.42-2.12,1.27-2.91c0.79-0.71,1.9-1.08,3.39-1.08h2.46v6.2h0.24V74.99z M26.84,68.8H26.2c-0.95,0-1.65,0.21-2.1,0.64
		c-0.46,0.42-0.67,0.94-0.67,1.56c0,0.79,0.3,1.4,0.91,1.83c0.36,0.25,0.95,0.37,1.81,0.37h0.69V68.8z"/>
	<path class="st1" d="M28.05,73.14c8.68,0,17.35,0.01,26.03,0.01v-6.16h1.82v6.16h0.21v1.8c-9.8,0.01-19.6,0.03-29.39,0.04
		C27.16,74.38,27.6,73.76,28.05,73.14z"/>
	<path class="st1" d="M54.95,74.96c0.17-0.59,0.33-1.18,0.5-1.76c3.66-0.02,7.32-0.05,10.99-0.07v-6.28h1.84v6.28h2.1v-6.28h1.82
		v6.28h2.02v-6.28h1.84v8.11C69.02,74.96,61.98,74.96,54.95,74.96z"/>
	<path class="st1" d="M78.23,63.06h1.89v11.9h-1.89V63.06z"/>
	<path class="st1" d="M81.77,78.92c0.41-0.76,0.49-1.47,0.62-2.72c0.08-0.77,0.1-1.41,0.09-1.85c0-2.5,0-5,0-7.5h1.81v6.31h0.23
		v1.84h-0.19v0.12c0,1.18-0.25,2.17-0.77,3.02c-0.1,0.17-0.6,0.91-1.54,1.55c-0.59,0.4-1.15,0.61-1.55,0.73
		C81.19,79.86,81.57,79.29,81.77,78.92z"/>
	<path class="st1" d="M84.21,73.18c3.09,0,6.17,0,9.26,0c-0.16-0.52-0.21-1-0.21-1.44c0-1.33,0.35-2.45,1.11-3.35
		c0.74-0.92,1.64-1.39,2.69-1.39c1.05,0,1.95,0.46,2.71,1.39c0.74,0.9,1.11,2,1.11,3.29c0,1.29-0.37,2.41-1.11,3.31
		c-0.76,0.9-1.66,1.39-2.71,1.39c-1.05,0-1.95-0.48-2.69-1.39c-3.58,0.01-7.16,0.01-10.75,0.02C83.82,74.39,84.02,73.78,84.21,73.18
		z M99.09,71.79c0-0.85-0.19-1.58-0.6-2.16c-0.39-0.6-0.86-0.89-1.42-0.89c-0.55,0-1.01,0.29-1.42,0.89
		c-0.41,0.58-0.6,1.29-0.6,2.12c0,0.83,0.19,1.52,0.6,2.1c0.41,0.58,0.88,0.89,1.42,0.89s1.01-0.31,1.42-0.87
		C98.89,73.27,99.09,72.59,99.09,71.79z"/>
	<ellipse class="st1" cx="53.54" cy="76.99" rx="0.93" ry="0.92"/>
	<ellipse class="st1" cx="49.7" cy="76.99" rx="0.93" ry="0.92"/>
</g>
</svg>
